<svg height="1502" width="720" xmlns="http://www.w3.org/2000/svg">
<rect height="1502" fill="#555" width="720"></rect>
<text fill="#7f7" font-family="Courier New" font-size="12" xml:space="preserve">
<tspan x="10" y="26"></tspan>
<tspan x="10" y="42">&gt; npmdoc-passport@0.0.4 test /home/travis/build/npmdoc/node-npmdoc-passport</tspan>
<tspan x="10" y="58">&gt; (set -e; export PORT=$(utility2 shServerPortRandom); utility2 test test.js)</tspan>
<tspan x="10" y="74"></tspan>
<tspan x="10" y="90"></tspan>
<tspan x="10" y="106">[MODE_BUILD=npmTest] - 2017-04-11T05:08:25Z - npm-testing /home/travis/build/npmdoc/node-npmdoc-\</tspan>
<tspan x="10" y="122">passport</tspan>
<tspan x="10" y="138"></tspan>
<tspan x="10" y="154">merging file:///home/travis/build/npmdoc/node-npmdoc-passport/tmp/build/test-report.json to test\</tspan>
<tspan x="10" y="170">-report</tspan>
<tspan x="10" y="186">&gt; server listening on http-port 34254</tspan>
<tspan x="10" y="202">created apidoc file:///home/travis/build/npmdoc/node-npmdoc-passport/tmp/build/apidoc.html</tspan>
<tspan x="10" y="218"></tspan>
<tspan x="10" y="234"></tspan>
<tspan x="10" y="250">browserTest - created electron entry-page /home/travis/build/npmdoc/node-npmdoc-passport/tmp/ele\</tspan>
<tspan x="10" y="266">ctron.15b5b69baae0.63ae583886bad.html</tspan>
<tspan x="10" y="282"></tspan>
<tspan x="10" y="298">[node test-case 1 of 6 passed] - testCase_buildLib_default</tspan>
<tspan x="10" y="314">[node test-case 2 of 6 passed] - testCase_buildReadme_default</tspan>
<tspan x="10" y="330">[node test-case 3 of 6 passed] - testCase_buildTest_default</tspan>
<tspan x="10" y="346"></tspan>
<tspan x="10" y="362">browserTest - created electron entry-page /home/travis/build/npmdoc/node-npmdoc-passport/tmp/ele\</tspan>
<tspan x="10" y="378">ctron.15b5b69baed0.69b699e10391.html</tspan>
<tspan x="10" y="394"></tspan>
<tspan x="10" y="410">Xlib:  extension "RANDR" missing on display ":99.0".</tspan>
<tspan x="10" y="426">Xlib:  extension "RANDR" missing on display ":99.0".</tspan>
<tspan x="10" y="442">merging file:///home/travis/build/npmdoc/node-npmdoc-passport/tmp/build/test-report.json to test\</tspan>
<tspan x="10" y="458">-report</tspan>
<tspan x="10" y="474">Xlib:  extension "RANDR" missing on display ":99.0".</tspan>
<tspan x="10" y="490">[5690:0411/050828:WARNING:audio_manager.cc(314)] Multiple instances of AudioManager detected</tspan>
<tspan x="10" y="506">[5690:0411/050828:WARNING:audio_manager.cc(275)] Multiple instances of AudioManager detected</tspan>
<tspan x="10" y="522">[5714:0411/050828:ERROR:sandbox_linux.cc(343)] InitializeSandbox() called with multiple threads \</tspan>
<tspan x="10" y="538">in process gpu-process. </tspan>
<tspan x="10" y="554">[5690:0411/050828:ERROR:browser_gpu_channel_host_factory.cc(131)] Failed to create channel.</tspan>
<tspan x="10" y="570">merging file:///home/travis/build/npmdoc/node-npmdoc-passport/tmp/build/test-report.json to test\</tspan>
<tspan x="10" y="586">-report</tspan>
<tspan x="10" y="602">Xlib:  extension "RANDR" missing on display ":99.0".</tspan>
<tspan x="10" y="618">[5694:0411/050829:WARNING:audio_manager.cc(314)] Multiple instances of AudioManager detected</tspan>
<tspan x="10" y="634">[5694:0411/050829:WARNING:audio_manager.cc(275)] Multiple instances of AudioManager detected</tspan>
<tspan x="10" y="650">[5752:0411/050829:ERROR:sandbox_linux.cc(343)] InitializeSandbox() called with multiple threads \</tspan>
<tspan x="10" y="666">in process gpu-process. </tspan>
<tspan x="10" y="682">[5694:0411/050829:ERROR:browser_gpu_channel_host_factory.cc(131)] Failed to create channel.</tspan>
<tspan x="10" y="698"></tspan>
<tspan x="10" y="714">browserTest - opened url /home/travis/build/npmdoc/node-npmdoc-passport/tmp/build/apidoc.html</tspan>
<tspan x="10" y="730"></tspan>
<tspan x="10" y="746">&gt; </tspan>
<tspan x="10" y="762">browserTest - opened url http://127.0.0.1:34254?modeTest=1</tspan>
<tspan x="10" y="778"></tspan>
<tspan x="10" y="794">server listening on http-port 52262</tspan>
<tspan x="10" y="810">[node test-case 4 of 6 passed] - testCase_buildApp_default</tspan>
<tspan x="10" y="826"></tspan>
<tspan x="10" y="842">browserTest - created screenCapture file:///home/travis/build/npmdoc/node-npmdoc-passport/tmp/bu\</tspan>
<tspan x="10" y="858">ild/screenCapture.npmTest.browser.%2Fhome%2Ftravis%2Fbuild%2Fnpmdoc%2Fnode-npmdoc-passport%2Ftmp\</tspan>
<tspan x="10" y="874">%2Fbuild%2Fapidoc.html.png</tspan>
<tspan x="10" y="890"></tspan>
<tspan x="10" y="906">browserTest - created screenCapture file:///home/travis/build/npmdoc/node-npmdoc-passport/tmp/bu\</tspan>
<tspan x="10" y="922">ild/screenCapture.npmTest.browser.%2Fhome%2Ftravis%2Fbuild%2Fnpmdoc%2Fnode-npmdoc-passport%2Ftmp\</tspan>
<tspan x="10" y="938">%2Fbuild%2Fapidoc.html.html</tspan>
<tspan x="10" y="954"></tspan>
<tspan x="10" y="970">browserTest - exit-code 0 - /home/travis/build/npmdoc/node-npmdoc-passport/tmp/build/apidoc.html</tspan>
<tspan x="10" y="986"></tspan>
<tspan x="10" y="1002">[node test-case 5 of 6 passed] - testCase_buildApidoc_default</tspan>
<tspan x="10" y="1018"></tspan>
<tspan x="10" y="1034">browserTest - created screenCapture file:///home/travis/build/npmdoc/node-npmdoc-passport/tmp/bu\</tspan>
<tspan x="10" y="1050">ild/screenCapture.npmTest.browser.%2F.png</tspan>
<tspan x="10" y="1066"></tspan>
<tspan x="10" y="1082">browserTest - created screenCapture file:///home/travis/build/npmdoc/node-npmdoc-passport/tmp/bu\</tspan>
<tspan x="10" y="1098">ild/screenCapture.npmTest.browser.%2F.html</tspan>
<tspan x="10" y="1114"></tspan>
<tspan x="10" y="1130">browserTest - exit-code 0 - http://127.0.0.1:34254?modeTest=1</tspan>
<tspan x="10" y="1146"></tspan>
<tspan x="10" y="1162"></tspan>
<tspan x="10" y="1178">browserTest - merging test-report from /home/travis/build/npmdoc/node-npmdoc-passport/tmp/test-r\</tspan>
<tspan x="10" y="1194">eport.npmTest.browser.%2F.json</tspan>
<tspan x="10" y="1210"></tspan>
<tspan x="10" y="1226">[node test-case 6 of 6 passed] - testCase_webpage_default</tspan>
<tspan x="10" y="1242">merging file:///home/travis/build/npmdoc/node-npmdoc-passport/tmp/build/test-report.json to test\</tspan>
<tspan x="10" y="1258">-report</tspan>
<tspan x="10" y="1274"></tspan>
<tspan x="10" y="1290">-------------------------------------------------------</tspan>
<tspan x="10" y="1306">| test-report - buildCustomOrg - node - linux v6.10.2 - 2017-04-11T05:07:56.584Z</tspan>
<tspan x="10" y="1322">|   46756 ms            0 failed        6 passed      |</tspan>
<tspan x="10" y="1338">-------------------------------------------------------</tspan>
<tspan x="10" y="1354"></tspan>
<tspan x="10" y="1370">created test-report file:///home/travis/build/npmdoc/node-npmdoc-passport/tmp/build/test-report.\</tspan>
<tspan x="10" y="1386">html</tspan>
<tspan x="10" y="1402"></tspan>
<tspan x="10" y="1418"></tspan>
<tspan x="10" y="1434">npmTest - 0 failed tests</tspan>
<tspan x="10" y="1450"></tspan>
<tspan x="10" y="1466"></tspan>
<tspan x="10" y="1482">[MODE_BUILD=npmTest] - 2017-04-11T05:08:46Z - EXIT_CODE - 0</tspan>
</text>
</svg>
