<svg height="2062" width="720" xmlns="http://www.w3.org/2000/svg">
<rect height="2062" fill="#555" width="720"></rect>
<text fill="#7f7" font-family="Courier New" font-size="12" xml:space="preserve">
<tspan x="10" y="26"></tspan>
<tspan x="10" y="42">&gt; npmdoc-passport@0.0.1 test /home/travis/build/npmdoc/node-npmdoc-passport</tspan>
<tspan x="10" y="58">&gt; (set -e; export PORT=$(utility2 shServerPortRandom); utility2 test test.js)</tspan>
<tspan x="10" y="74"></tspan>
<tspan x="10" y="90"></tspan>
<tspan x="10" y="106">[MODE_BUILD=npmTest] - 2017-03-18T13:15:54Z - npm-testing /home/travis/build/npmdoc/node-npmdoc-\</tspan>
<tspan x="10" y="122">passport</tspan>
<tspan x="10" y="138"></tspan>
<tspan x="10" y="154"></tspan>
<tspan x="10" y="170">covering $ /home/travis/.nvm/versions/node/v7.7.3/bin/node /home/travis/build/npmdoc/node-npmdoc\</tspan>
<tspan x="10" y="186">-passport/test.js</tspan>
<tspan x="10" y="202">merging file:///home/travis/build/npmdoc/node-npmdoc-passport/tmp/build/test-report.json to test\</tspan>
<tspan x="10" y="218">-report</tspan>
<tspan x="10" y="234">&gt; server listening on http-port 59627</tspan>
<tspan x="10" y="250">apidocCreate - normalizing dir passport</tspan>
<tspan x="10" y="266">apidocCreate - normalized dir /home/travis/build/npmdoc/node-npmdoc-passport/node_modules/passpo\</tspan>
<tspan x="10" y="282">rt</tspan>
<tspan x="10" y="298">created apidoc file:///home/travis/build/npmdoc/node-npmdoc-passport/tmp/build/apidoc.html</tspan>
<tspan x="10" y="314"></tspan>
<tspan x="10" y="330"></tspan>
<tspan x="10" y="346">browserTest - created electron entry-page /home/travis/build/npmdoc/node-npmdoc-passport/tmp/ele\</tspan>
<tspan x="10" y="362">ctron.15ae18f64120.5652f91634934.html</tspan>
<tspan x="10" y="378"></tspan>
<tspan x="10" y="394">apidocCreate - normalizing dir passport</tspan>
<tspan x="10" y="410">apidocCreate - normalized dir /home/travis/build/npmdoc/node-npmdoc-passport/node_modules/passpo\</tspan>
<tspan x="10" y="426">rt</tspan>
<tspan x="10" y="442">[node test-case 1 of 6 passed] - testCase_buildLib_default</tspan>
<tspan x="10" y="458">[node test-case 2 of 6 passed] - testCase_buildReadme_default</tspan>
<tspan x="10" y="474">[node test-case 3 of 6 passed] - testCase_buildTest_default</tspan>
<tspan x="10" y="490"></tspan>
<tspan x="10" y="506">browserTest - created electron entry-page /home/travis/build/npmdoc/node-npmdoc-passport/tmp/ele\</tspan>
<tspan x="10" y="522">ctron.15ae18f64610.8043be0cb67e1.html</tspan>
<tspan x="10" y="538"></tspan>
<tspan x="10" y="554">(node:4368) DeprecationWarning: node --debug is deprecated. Please use node --inspect instead.</tspan>
<tspan x="10" y="570">Xlib:  extension "RANDR" missing on display ":99.0".</tspan>
<tspan x="10" y="586">Xlib:  extension "RANDR" missing on display ":99.0".</tspan>
<tspan x="10" y="602">&gt; server listening on http-port 41346</tspan>
<tspan x="10" y="618">merging file:///home/travis/build/npmdoc/node-npmdoc-passport/tmp/build/test-report.json to test\</tspan>
<tspan x="10" y="634">-report</tspan>
<tspan x="10" y="650">Xlib:  extension "RANDR" missing on display ":99.0".</tspan>
<tspan x="10" y="666">merging file:///home/travis/build/npmdoc/node-npmdoc-passport/tmp/build/test-report.json to test\</tspan>
<tspan x="10" y="682">-report</tspan>
<tspan x="10" y="698">[4399:0318/131556:WARNING:audio_manager.cc(314)] Multiple instances of AudioManager detected</tspan>
<tspan x="10" y="714">[4399:0318/131556:WARNING:audio_manager.cc(275)] Multiple instances of AudioManager detected</tspan>
<tspan x="10" y="730">[4424:0318/131556:ERROR:sandbox_linux.cc(343)] InitializeSandbox() called with multiple threads \</tspan>
<tspan x="10" y="746">in process gpu-process. </tspan>
<tspan x="10" y="762">Xlib:  extension "RANDR" missing on display ":99.0".</tspan>
<tspan x="10" y="778">[4402:0318/131556:WARNING:audio_manager.cc(314)] Multiple instances of AudioManager detected</tspan>
<tspan x="10" y="794">[4402:0318/131556:WARNING:audio_manager.cc(275)] Multiple instances of AudioManager detected</tspan>
<tspan x="10" y="810">[4449:0318/131556:ERROR:sandbox_linux.cc(343)] InitializeSandbox() called with multiple threads \</tspan>
<tspan x="10" y="826">in process gpu-process. </tspan>
<tspan x="10" y="842">[4399:0318/131556:ERROR:browser_gpu_channel_host_factory.cc(131)] Failed to create channel.</tspan>
<tspan x="10" y="858"></tspan>
<tspan x="10" y="874">browserTest - opened url file:///home/travis/build/npmdoc/node-npmdoc-passport/tmp/build/apidoc.\</tspan>
<tspan x="10" y="890">html</tspan>
<tspan x="10" y="906"></tspan>
<tspan x="10" y="922"></tspan>
<tspan x="10" y="938">browserTest - opened url http://127.0.0.1:59627?modeTest=1</tspan>
<tspan x="10" y="954"></tspan>
<tspan x="10" y="970">[4402:0318/131558:INFO:CONSOLE(203)] "----------|-----------|-----------|-----------|-----------\</tspan>
<tspan x="10" y="986">|</tspan>
<tspan x="10" y="1002">File      |   % Stmts |% Branches |   % Funcs |   % Lines |</tspan>
<tspan x="10" y="1018">----------|-----------|-----------|-----------|-----------|</tspan>
<tspan x="10" y="1034">----------|-----------|-----------|-----------|-----------|</tspan>
<tspan x="10" y="1050">All files |       100 |       100 |       100 |       100 |</tspan>
<tspan x="10" y="1066">----------|-----------|-----------|-----------|-----------|</tspan>
<tspan x="10" y="1082">", source: file:///home/travis/build/npmdoc/node-npmdoc-passport/tmp/electron.15ae18f64610.8043b\</tspan>
<tspan x="10" y="1098">e0cb67e1.html (203)</tspan>
<tspan x="10" y="1114">[4402:0318/131558:INFO:CONSOLE(203)] "created coverage file:///tmp/build/coverage.html/index.htm\</tspan>
<tspan x="10" y="1130">l", source: file:///home/travis/build/npmdoc/node-npmdoc-passport/tmp/electron.15ae18f64610.8043\</tspan>
<tspan x="10" y="1146">be0cb67e1.html (203)</tspan>
<tspan x="10" y="1162">[node test-case 4 of 6 passed] - testCase_buildApp_default</tspan>
<tspan x="10" y="1178"></tspan>
<tspan x="10" y="1194">browserTest - created screen-capture file:///home/travis/build/npmdoc/node-npmdoc-passport/tmp/b\</tspan>
<tspan x="10" y="1210">uild/screen-capture.npmTest.browser._2Fhome_2Ftravis_2Fbuild_2Fnpmdoc_2Fnode-npmdoc-passport_2Ft\</tspan>
<tspan x="10" y="1226">mp_2Fbuild_2Fapidoc.html.png</tspan>
<tspan x="10" y="1242"></tspan>
<tspan x="10" y="1258"></tspan>
<tspan x="10" y="1274">browserTest - exit-code 0 - file:///home/travis/build/npmdoc/node-npmdoc-passport/tmp/build/apid\</tspan>
<tspan x="10" y="1290">oc.html</tspan>
<tspan x="10" y="1306"></tspan>
<tspan x="10" y="1322">[node test-case 5 of 6 passed] - testCase_buildApidoc_default</tspan>
<tspan x="10" y="1338"></tspan>
<tspan x="10" y="1354">browserTest - created screen-capture file:///home/travis/build/npmdoc/node-npmdoc-passport/tmp/b\</tspan>
<tspan x="10" y="1370">uild/screen-capture.npmTest.browser..png</tspan>
<tspan x="10" y="1386"></tspan>
<tspan x="10" y="1402"></tspan>
<tspan x="10" y="1418">browserTest - exit-code 0 - http://127.0.0.1:59627?modeTest=1</tspan>
<tspan x="10" y="1434"></tspan>
<tspan x="10" y="1450"></tspan>
<tspan x="10" y="1466">browserTest - merged coverage from /home/travis/build/npmdoc/node-npmdoc-passport/tmp/coverage.n\</tspan>
<tspan x="10" y="1482">pmTest.browser.%2F.json</tspan>
<tspan x="10" y="1498"></tspan>
<tspan x="10" y="1514"></tspan>
<tspan x="10" y="1530">browserTest - merging test-report from /home/travis/build/npmdoc/node-npmdoc-passport/tmp/test-r\</tspan>
<tspan x="10" y="1546">eport.npmTest.browser.%2F.json</tspan>
<tspan x="10" y="1562"></tspan>
<tspan x="10" y="1578">[node test-case 6 of 6 passed] - testCase_webpage_default</tspan>
<tspan x="10" y="1594">-----------------------------|-----------|-----------|-----------|-----------|</tspan>
<tspan x="10" y="1610">File                         |   % Stmts |% Branches |   % Funcs |   % Lines |</tspan>
<tspan x="10" y="1626">-----------------------------|-----------|-----------|-----------|-----------|</tspan>
<tspan x="10" y="1642">   node-npmdoc-passport/     |       100 |       100 |       100 |       100 |</tspan>
<tspan x="10" y="1658">      example.js             |       100 |       100 |       100 |       100 |</tspan>
<tspan x="10" y="1674">      lib.npmdoc_passport.js |       100 |       100 |       100 |       100 |</tspan>
<tspan x="10" y="1690">      test.js                |       100 |       100 |       100 |       100 |</tspan>
<tspan x="10" y="1706">-----------------------------|-----------|-----------|-----------|-----------|</tspan>
<tspan x="10" y="1722">All files                    |       100 |       100 |       100 |       100 |</tspan>
<tspan x="10" y="1738">-----------------------------|-----------|-----------|-----------|-----------|</tspan>
<tspan x="10" y="1754"></tspan>
<tspan x="10" y="1770">created coverage file:///home/travis/build/npmdoc/node-npmdoc-passport/tmp/build/coverage.html/i\</tspan>
<tspan x="10" y="1786">ndex.html</tspan>
<tspan x="10" y="1802">merging file:///home/travis/build/npmdoc/node-npmdoc-passport/tmp/build/test-report.json to test\</tspan>
<tspan x="10" y="1818">-report</tspan>
<tspan x="10" y="1834"></tspan>
<tspan x="10" y="1850">-------------------------------------------------------</tspan>
<tspan x="10" y="1866">| test-report - buildNpmdoc - node - linux v7.7.3 - 2017-03-18T13:15:44.575Z</tspan>
<tspan x="10" y="1882">|   16229 ms            0 failed        6 passed      |</tspan>
<tspan x="10" y="1898">-------------------------------------------------------</tspan>
<tspan x="10" y="1914"></tspan>
<tspan x="10" y="1930">created test-report file:///home/travis/build/npmdoc/node-npmdoc-passport/tmp/build/test-report.\</tspan>
<tspan x="10" y="1946">html</tspan>
<tspan x="10" y="1962"></tspan>
<tspan x="10" y="1978"></tspan>
<tspan x="10" y="1994">npmTest - 0 failed tests</tspan>
<tspan x="10" y="2010"></tspan>
<tspan x="10" y="2026"></tspan>
<tspan x="10" y="2042">[MODE_BUILD=npmTest] - 2017-03-18T13:16:03Z - EXIT_CODE - 0</tspan>
</text>
</svg>
